<svg width="108" height="39" viewBox="0 0 108 39" fill="none" xmlns="http://www.w3.org/2000/svg">
<rect x="36.5356" y="36.7333" width="35" height="35" rx="3.44088" transform="rotate(-180 36.5356 36.7333)" stroke="#003EB7" stroke-width="2.58066"/>
<path d="M52.8402 29.0667V12.2666H64.7202V15.5786H57.1602V19.4667H64.0002V22.5867H57.1602V29.0667H52.8402ZM67.3536 29.0667V12.2666H71.6736V29.0667H67.3536ZM79.2298 29.0667V15.8186H74.0698V12.2666H88.7098V15.8186H83.5498V29.0667H79.2298ZM96.1474 29.0667V22.7786L89.9314 12.2666H94.9234L98.4274 18.5066L101.739 12.2666H106.251L100.491 22.7786V29.0667H96.1474Z" fill="#003EB7"/>
<path d="M36.64 2L36.64 35.6L12.88 35.6L12.88 28.976L28 28.976L28 21.2L14.32 21.2L14.32 14.96L28 14.96L28 2L36.64 2Z" fill="#003EB7"/>
</svg>
