<svg width="141" height="68" viewBox="0 0 141 68" fill="none" xmlns="http://www.w3.org/2000/svg">
<rect x="3" y="3" width="62.1758" height="62.1758" rx="6.06593" stroke="black" stroke-width="4.54945"/>
<path d="M86.5701 42.1648V25.3648H98.4501V28.6768H90.8901V32.5648H97.7301V35.6848H90.8901V42.1648H86.5701ZM101.084 42.1648V25.3648H105.404V42.1648H101.084ZM112.96 42.1648V28.9168H107.8V25.3648H122.44V28.9168H117.28V42.1648H112.96ZM129.877 42.1648V35.8768L123.661 25.3648H128.653L132.157 31.6048L135.469 25.3648H139.981L134.221 35.8768V42.1648H129.877Z" fill="black"/>
<path d="M28.3988 41.0156V24.2156H40.2787V27.5276H32.7188V31.4156H39.5588V34.5356H32.7188V41.0156H28.3988Z" fill="black"/>
</svg>
