<svg width="20" height="20" viewBox="0 0 20 20" fill="none" xmlns="http://www.w3.org/2000/svg">
<path fill-rule="evenodd" clip-rule="evenodd" d="M6.5 3.54175H6.47325C5.79588 3.54174 5.24953 3.54174 4.80711 3.57788C4.35158 3.61511 3.95146 3.69374 3.58128 3.88236C2.99328 4.18196 2.51521 4.66002 2.21561 5.24803C2.02699 5.61821 1.94836 6.01833 1.91113 6.47386C1.87499 6.91628 1.87499 7.46262 1.875 8.13998V8.16675V11.8334V11.8602C1.87499 12.5376 1.87499 13.0839 1.91113 13.5263C1.94836 13.9818 2.02699 14.3819 2.21561 14.7522C2.51521 15.3402 2.99328 15.8182 3.58128 16.1178C3.95146 16.3064 4.35158 16.3851 4.80711 16.4222C5.24953 16.4584 5.79588 16.4584 6.47323 16.4584H6.5H13.5H13.5267C14.2042 16.4584 14.7505 16.4584 15.1929 16.4222C15.6484 16.3851 16.0485 16.3064 16.4187 16.1178C17.0067 15.8182 17.4847 15.3402 17.7844 14.7522C17.973 14.3819 18.0517 13.9818 18.0888 13.5263C18.125 13.0839 18.125 12.5376 18.125 11.8602V11.8334V8.16675V8.13998C18.125 7.46262 18.125 6.91628 18.0888 6.47386C18.0517 6.01833 17.973 5.61821 17.7844 5.24803C17.4847 4.66002 17.0067 4.18196 16.4187 3.88236C16.0485 3.69374 15.6484 3.61511 15.1929 3.57788C14.7505 3.54174 14.2041 3.54174 13.5267 3.54175H13.5H6.5ZM4.14877 4.99611C4.31337 4.91225 4.53068 4.85464 4.9089 4.82373C5.29442 4.79223 5.78963 4.79175 6.5 4.79175H13.5C14.2104 4.79175 14.7056 4.79223 15.0911 4.82373C15.4693 4.85464 15.6867 4.91225 15.8512 4.99611C16.0197 5.08191 16.173 5.19211 16.3068 5.32224C16.278 5.34259 16.2505 5.36566 16.2247 5.39147L12.3865 9.22975C11.8842 9.732 11.5337 10.0818 11.2387 10.3322C10.9495 10.5777 10.7551 10.6907 10.5794 10.7477C10.2028 10.8702 9.79717 10.8702 9.42058 10.7477C9.24492 10.6907 9.0505 10.5777 8.76125 10.3322C8.46633 10.0818 8.11583 9.732 7.61352 9.22975L3.77528 5.39147C3.74947 5.36566 3.72197 5.34259 3.69313 5.32224C3.827 5.19211 3.98037 5.08191 4.14877 4.99611ZM3.1597 6.54366C3.15877 6.55419 3.15787 6.56486 3.15698 6.57565C3.12548 6.96117 3.125 7.45637 3.125 8.16675V11.8334C3.125 12.5438 3.12548 13.039 3.15698 13.4245C3.18789 13.8027 3.2455 14.0201 3.32937 14.1847C3.50913 14.5374 3.79597 14.8242 4.14877 15.0041C4.31337 15.0879 4.53068 15.1455 4.9089 15.1764C5.29442 15.2079 5.78963 15.2084 6.5 15.2084H13.5C14.2104 15.2084 14.7056 15.2079 15.0911 15.1764C15.4693 15.1455 15.6867 15.0879 15.8512 15.0041C16.204 14.8242 16.4908 14.5374 16.6707 14.1847C16.7545 14.0201 16.8121 13.8027 16.843 13.4245C16.8745 13.039 16.875 12.5438 16.875 11.8334V8.16675C16.875 7.45637 16.8745 6.96117 16.843 6.57565C16.8422 6.56486 16.8413 6.5542 16.8403 6.54366L13.2703 10.1136L13.2514 10.1325C12.7725 10.6114 12.3862 10.9978 12.0477 11.2851C11.6993 11.5809 11.3608 11.8082 10.9657 11.9366C10.3381 12.1405 9.66192 12.1405 9.03433 11.9366C8.63917 11.8082 8.30067 11.5809 7.95224 11.2851C7.61384 10.9978 7.22753 10.6115 6.74858 10.1325L6.72963 10.1136L3.1597 6.54366Z" fill="white"/>
</svg>
