<svg width="70" height="70" viewBox="0 0 70 70" fill="none" xmlns="http://www.w3.org/2000/svg">
<path d="M45.2082 55.4167H46.6665C58.3332 55.4167 64.1665 52.5 64.1665 37.9167V23.3334C64.1665 11.6667 58.3332 5.83337 46.6665 5.83337H23.3332C11.6665 5.83337 5.83317 11.6667 5.83317 23.3334V37.9167C5.83317 49.5834 11.6665 55.4167 23.3332 55.4167H24.7915C25.6957 55.4167 26.5707 55.8542 27.1248 56.5834L31.4998 62.4167C33.4248 64.9834 36.5748 64.9834 38.4998 62.4167L42.8748 56.5834C43.3415 55.9417 44.4207 55.4167 45.2082 55.4167Z" stroke="#292A45" stroke-width="5" stroke-miterlimit="10" stroke-linecap="round" stroke-linejoin="round"/>
<path d="M23.3438 32.0834H23.3178" stroke="#292A45" stroke-width="5" stroke-linecap="round" stroke-linejoin="round"/>
<path d="M35.0132 32.0834H34.9869" stroke="#292A45" stroke-width="5" stroke-linecap="round" stroke-linejoin="round"/>
<path d="M46.6826 32.0834H46.6564" stroke="#292A45" stroke-width="5" stroke-linecap="round" stroke-linejoin="round"/>
</svg>
