<svg width="20" height="20" viewBox="0 0 20 20" fill="none" xmlns="http://www.w3.org/2000/svg">
<path d="M5.95736 2.37471C6.55879 3.20671 7.27597 4.28129 8.10531 5.59381C8.31419 5.9489 8.28229 6.37419 8.01219 6.87432C7.90929 7.08387 7.64897 7.56129 7.2343 8.31277C7.69064 8.95794 8.3857 9.75123 9.32102 10.687C10.2563 11.6227 11.0347 12.3226 11.6557 12.7804C12.4017 12.3417 12.8807 12.0738 13.0901 11.9675C13.3602 11.8225 13.6205 11.7481 13.868 11.7481C14.0547 11.7481 14.2219 11.7899 14.3665 11.8741C15.3214 12.4578 16.4018 13.1773 17.6046 14.0289C17.8331 14.1966 17.9617 14.4258 17.9936 14.7159C18.026 15.0095 17.9354 15.3192 17.7302 15.6547C17.6273 15.7997 17.4601 16.0129 17.2316 16.2968C17.0032 16.5775 16.659 16.9321 16.2027 17.3579C15.7463 17.7837 15.3728 18 15.0806 18H15.0482C12.8519 17.9128 10.1447 16.2612 6.93899 13.0452C3.73019 9.82555 2.08335 7.11277 2 4.90632C2 4.61574 2.21196 4.23535 2.64001 3.76465C3.06445 3.29703 3.41481 2.95794 3.68183 2.74839C3.95193 2.54194 4.18036 2.37419 4.3666 2.24826C4.59503 2.08052 4.85535 2 5.145 2C5.50205 2 5.76855 2.12594 5.95839 2.37419L5.95736 2.37471ZM4.92841 3.02968C4.4911 3.34245 4.08261 3.69394 3.69675 4.07794C3.31398 4.46503 3.08915 4.7489 3.02793 4.93574C3.11179 6.87432 4.65162 9.34194 7.65205 12.3422C10.6525 15.3425 13.1184 16.8939 15.0477 16.9972C15.2149 16.9357 15.4881 16.7066 15.8739 16.3102C16.2598 15.9138 16.6071 15.4973 16.9157 15.0617C16.977 14.9775 16.9996 14.9068 16.977 14.8423C15.7324 13.968 14.6937 13.2712 13.8613 12.7489C13.7774 12.7489 13.6745 12.7814 13.5495 12.8423C13.3628 12.9455 12.8966 13.2067 12.1476 13.6227L11.6171 13.9355L11.0867 13.5902C10.4019 13.1128 9.57208 12.3706 8.59458 11.3708C7.62016 10.3933 6.89371 9.55819 6.41422 8.87071L6.04122 8.37058L6.353 7.80903C6.76767 7.06065 7.02851 6.58942 7.13089 6.40258C7.19211 6.27664 7.22401 6.17342 7.22401 6.08981C6.48419 4.90581 5.79942 3.86374 5.17587 2.96723H5.14346C5.0632 2.96723 4.98912 2.98994 4.92789 3.02865L4.92841 3.02968Z" fill="white"/>
</svg>
