<svg width="77" height="77" viewBox="0 0 77 77" fill="none" xmlns="http://www.w3.org/2000/svg">
<path fill-rule="evenodd" clip-rule="evenodd" d="M25.025 13.6355H24.922C22.3142 13.6355 20.2107 13.6355 18.5074 13.7746C16.7536 13.9179 15.2131 14.2207 13.7879 14.9468C11.5241 16.1003 9.68355 17.9409 8.53009 20.2047C7.80392 21.6299 7.50118 23.1703 7.35786 24.9241C7.21872 26.6275 7.21872 28.7309 7.21875 31.3387V31.4417V45.5584V45.6614C7.21872 48.2695 7.21872 50.3728 7.35786 52.0761C7.50118 53.8298 7.80392 55.3701 8.53009 56.7956C9.68355 59.0594 11.5241 60.8997 13.7879 62.0534C15.2131 62.7795 16.7536 63.0823 18.5074 63.2254C20.2107 63.3647 22.3141 63.3647 24.9219 63.3647H25.025H51.975H52.078C54.686 63.3647 56.7894 63.3647 58.4927 63.2254C60.2464 63.0823 61.7867 62.7795 63.2122 62.0534C65.476 60.8997 67.3163 59.0594 68.47 56.7956C69.196 55.3701 69.4989 53.8298 69.642 52.0761C69.7812 50.3728 69.7812 48.2695 69.7812 45.6614V45.5584V31.4417V31.3387C69.7812 28.7309 69.7812 26.6275 69.642 24.9241C69.4989 23.1703 69.196 21.6299 68.47 20.2047C67.3163 17.9409 65.476 16.1003 63.2122 14.9468C61.7867 14.2207 60.2464 13.9179 58.4927 13.7746C56.7894 13.6355 54.6857 13.6355 52.078 13.6355H51.975H25.025ZM15.9728 19.2348C16.6065 18.9119 17.4431 18.6901 18.8993 18.5711C20.3835 18.4499 22.2901 18.448 25.025 18.448H51.975C54.7101 18.448 56.6165 18.4499 58.1007 18.5711C59.5569 18.6901 60.3937 18.9119 61.0273 19.2348C61.6757 19.5651 62.266 19.9894 62.7813 20.4904C62.6703 20.5687 62.5644 20.6576 62.4653 20.7569L47.688 35.5343C45.754 37.468 44.4046 38.8148 43.2692 39.7786C42.1556 40.7241 41.4071 41.1588 40.7308 41.3786C39.2809 41.8499 37.7191 41.8499 36.2692 41.3786C35.5929 41.1588 34.8444 40.7241 33.7308 39.7786C32.5954 38.8148 31.2459 37.468 29.312 35.5343L14.5348 20.7569C14.4354 20.6576 14.3296 20.5687 14.2185 20.4904C14.734 19.9894 15.3244 19.5651 15.9728 19.2348ZM12.1648 25.1928C12.1613 25.2334 12.1578 25.2745 12.1544 25.316C12.0331 26.8003 12.0313 28.7068 12.0313 31.4417V45.5584C12.0313 48.2935 12.0331 50.1999 12.1544 51.6841C12.2734 53.1403 12.4952 53.9771 12.8181 54.6107C13.5101 55.9688 14.6145 57.0731 15.9728 57.7655C16.6065 58.0882 17.4431 58.3099 18.8993 58.429C20.3835 58.5502 22.2901 58.5522 25.025 58.5522H51.975C54.7101 58.5522 56.6165 58.5502 58.1007 58.429C59.5569 58.3099 60.3937 58.0882 61.0273 57.7655C62.3854 57.0731 63.4897 55.9688 64.1821 54.6107C64.5048 53.9771 64.7265 53.1403 64.8455 51.6841C64.9668 50.1999 64.9688 48.2935 64.9688 45.5584V31.4417C64.9688 28.7068 64.9668 26.8003 64.8455 25.316C64.8423 25.2745 64.8388 25.2334 64.8353 25.1929L51.0908 38.9371L51.018 39.0099C49.1741 40.8537 47.6867 42.3414 46.3838 43.4473C45.0424 44.5863 43.7392 45.4615 42.2178 45.9556C39.8016 46.7407 37.1984 46.7407 34.7822 45.9556C33.2608 45.4615 31.9576 44.5863 30.6161 43.4473C29.3133 42.3414 27.826 40.854 25.982 39.0099L25.9091 38.9371L12.1648 25.1928Z" fill="black"/>
</svg>
